# WaveFront *.obj file (generated by Autodesk ATF)

mtllib 1f6bf388-7d90-45b0-9796-d4ada20f0e44.mtl

g Body1

v -287.144790 65.783122 100.000000
v -292.322459 69.756087 100.000000
v -296.295425 74.933757 100.000000
v -298.792935 80.963281 100.000000
v -299.644790 87.433757 100.000000
v -299.644790 87.433757 0.000000
v -298.792935 80.963281 0.000000
v -296.295425 74.933757 0.000000
v -292.322459 69.756087 0.000000
v -287.144790 65.783122 0.000000
v -12.500000 -92.783122 100.000000
v -6.470476 -95.280632 100.000000
v -0.000000 -96.132487 100.000000
v 6.470476 -95.280632 100.000000
v 12.500000 -92.783122 100.000000
v 287.144790 65.783122 100.000000
v 292.322459 69.756087 100.000000
v 296.295425 74.933757 100.000000
v 298.792935 80.963281 100.000000
v 299.644790 87.433757 100.000000
v 299.644790 129.698730 100.000000
v 298.792935 136.169206 100.000000
v 296.295425 142.198730 100.000000
v 292.322459 147.376399 100.000000
v 287.144790 151.349365 100.000000
v 281.115266 153.846875 100.000000
v 274.644790 154.698730 100.000000
v 268.174314 153.846875 100.000000
v 262.144790 151.349365 100.000000
v 12.500000 7.216878 100.000000
v 6.470476 4.719368 100.000000
v 0.000000 3.867513 100.000000
v -6.470476 4.719368 100.000000
v -12.500000 7.216878 100.000000
v -262.144790 151.349365 100.000000
v -268.174314 153.846875 100.000000
v -274.644790 154.698730 100.000000
v -281.115266 153.846875 100.000000
v -287.144790 151.349365 100.000000
v -292.322459 147.376399 100.000000
v -296.295425 142.198730 100.000000
v -298.792935 136.169206 100.000000
v -299.644790 129.698730 100.000000
v -12.500000 -92.783122 0.000000
v -6.470476 -95.280632 0.000000
v -0.000000 -96.132487 0.000000
v 6.470476 -95.280632 0.000000
v 12.500000 -92.783122 0.000000
v 12.500000 7.216878 0.000000
v 6.470476 4.719368 0.000000
v 0.000000 3.867513 0.000000
v -6.470476 4.719368 0.000000
v -12.500000 7.216878 0.000000
v -262.144790 151.349365 0.000000
v 287.144790 65.783122 0.000000
v 292.322459 69.756087 0.000000
v 296.295425 74.933757 0.000000
v 298.792935 80.963281 0.000000
v 299.644790 87.433757 0.000000
v 299.644790 129.698730 0.000000
v 298.792935 136.169206 0.000000
v 296.295425 142.198730 0.000000
v 292.322459 147.376399 0.000000
v 287.144790 151.349365 0.000000
v 281.115266 153.846875 0.000000
v 274.644790 154.698730 0.000000
v 268.174314 153.846875 0.000000
v 262.144790 151.349365 0.000000
v -268.174314 153.846875 0.000000
v -274.644790 154.698730 0.000000
v -281.115266 153.846875 0.000000
v -287.144790 151.349365 0.000000
v -292.322459 147.376399 0.000000
v -296.295425 142.198730 0.000000
v -298.792935 136.169206 0.000000
v -299.644790 129.698730 0.000000
vt -0.000000 1.308997 0.000000
vt -10.000000 1.308997 0.000000
vt -0.000000 0.654498 0.000000
vt -10.000000 0.654498 0.000000
vt -0.000000 0.000000 0.000000
vt -10.000000 0.000000 0.000000
vt -0.000000 -0.654498 0.000000
vt -10.000000 -0.654498 0.000000
vt -0.000000 -1.308997 0.000000
vt -10.000000 -1.308997 0.000000
vt -29.879294 4.446328 0.000000
vt -28.714479 2.928312 0.000000
vt -29.964479 5.093376 0.000000
vt -1.250000 -2.928312 0.000000
vt -26.214479 11.484936 0.000000
vt -29.629542 3.843376 0.000000
vt -29.232246 3.325609 0.000000
vt -1.250000 -12.928312 0.000000
vt -0.647048 -3.178063 0.000000
vt 0.000000 -3.263249 0.000000
vt 1.250000 -12.928312 0.000000
vt 0.647048 -3.178063 0.000000
vt 1.250000 -2.928312 0.000000
vt 28.714479 2.928312 0.000000
vt 29.964479 5.093376 0.000000
vt 29.879294 4.446328 0.000000
vt 29.629542 3.843376 0.000000
vt 29.232246 3.325609 0.000000
vt 0.647048 -13.178063 0.000000
vt -0.647048 -13.178063 0.000000
vt -0.000000 -13.263249 0.000000
vt 26.214479 11.484936 0.000000
vt 29.964479 9.319873 0.000000
vt 29.879294 9.966921 0.000000
vt 29.629542 10.569873 0.000000
vt 29.232246 11.087640 0.000000
vt 28.714479 11.484936 0.000000
vt 26.817431 11.734688 0.000000
vt 28.111527 11.734688 0.000000
vt 27.464479 11.819873 0.000000
vt -26.817431 11.734688 0.000000
vt -28.111527 11.734688 0.000000
vt -28.714479 11.484936 0.000000
vt -29.232246 11.087640 0.000000
vt -27.464479 11.819873 0.000000
vt -29.629542 10.569873 0.000000
vt -29.879294 9.966921 0.000000
vt -29.964479 9.319873 0.000000
vt 1.443376 0.000000 0.000000
vt 33.156624 0.000000 0.000000
vt 1.443376 10.000000 0.000000
vt 33.156624 10.000000 0.000000
vt -0.000000 1.308997 0.000000
vt -10.000000 1.308997 0.000000
vt -0.000000 0.654498 0.000000
vt -10.000000 0.654498 0.000000
vt -0.000000 0.000000 0.000000
vt -10.000000 0.000000 0.000000
vt -0.000000 -0.654498 0.000000
vt -10.000000 -0.654498 0.000000
vt -0.000000 -1.308997 0.000000
vt -10.000000 -1.308997 0.000000
vt 10.000000 1.308997 0.000000
vt 0.000000 1.308997 0.000000
vt 10.000000 0.654498 0.000000
vt 0.000000 0.654498 0.000000
vt 10.000000 -0.000000 0.000000
vt 0.000000 -0.000000 0.000000
vt 10.000000 -0.654498 0.000000
vt -0.000000 -0.654498 0.000000
vt 10.000000 -1.308997 0.000000
vt -0.000000 -1.308997 0.000000
vt 1.443376 0.000000 0.000000
vt 30.269873 0.000000 0.000000
vt 1.443376 10.000000 0.000000
vt 30.269873 10.000000 0.000000
vt -0.000000 1.308997 0.000000
vt -10.000000 1.308997 0.000000
vt -0.000000 0.654498 0.000000
vt -10.000000 0.654498 0.000000
vt -0.000000 0.000000 0.000000
vt -10.000000 0.000000 0.000000
vt -0.000000 -0.654498 0.000000
vt -10.000000 -0.654498 0.000000
vt -0.000000 -1.308997 0.000000
vt -10.000000 -1.308997 0.000000
vt 1.443376 0.000000 0.000000
vt 5.669873 0.000000 0.000000
vt 1.443376 10.000000 0.000000
vt 5.669873 10.000000 0.000000
vt -0.000000 2.617994 0.000000
vt -10.000000 2.617994 0.000000
vt -0.000000 1.963495 0.000000
vt -10.000000 1.963495 0.000000
vt -0.000000 1.308997 0.000000
vt -10.000000 1.308997 0.000000
vt -0.000000 0.654498 0.000000
vt -10.000000 0.654498 0.000000
vt -0.000000 0.000000 0.000000
vt -10.000000 0.000000 0.000000
vt -0.000000 -0.654498 0.000000
vt -10.000000 -0.654498 0.000000
vt -0.000000 -1.308997 0.000000
vt -10.000000 -1.308997 0.000000
vt -0.000000 -1.963495 0.000000
vt -10.000000 -1.963495 0.000000
vt -0.000000 -2.617994 0.000000
vt -10.000000 -2.617994 0.000000
vt -0.000000 2.617994 0.000000
vt -10.000000 2.617994 0.000000
vt -0.000000 1.963495 0.000000
vt -10.000000 1.963495 0.000000
vt -0.000000 1.308997 0.000000
vt -10.000000 1.308997 0.000000
vt -0.000000 0.654498 0.000000
vt -10.000000 0.654498 0.000000
vt -0.000000 0.000000 0.000000
vt -10.000000 0.000000 0.000000
vt -0.000000 -0.654498 0.000000
vt -10.000000 -0.654498 0.000000
vt -0.000000 -1.308997 0.000000
vt -10.000000 -1.308997 0.000000
vt -0.000000 -1.963495 0.000000
vt -10.000000 -1.963495 0.000000
vt -0.000000 -2.617994 0.000000
vt -10.000000 -2.617994 0.000000
vt 8.556624 10.000000 0.000000
vt 4.330127 10.000000 0.000000
vt 8.556624 0.000000 0.000000
vt 4.330127 0.000000 0.000000
vt 33.156624 10.000000 0.000000
vt 4.330127 10.000000 0.000000
vt 33.156624 0.000000 0.000000
vt 4.330127 0.000000 0.000000
vt 1.443376 0.000000 0.000000
vt 33.156624 0.000000 0.000000
vt 1.443376 10.000000 0.000000
vt 33.156624 10.000000 0.000000
vt 29.232246 3.325609 0.000000
vt 29.629542 3.843376 0.000000
vt 28.714479 2.928312 0.000000
vt 29.879294 4.446328 0.000000
vt 29.964479 5.093376 0.000000
vt 29.964479 9.319873 0.000000
vt 26.214479 11.484936 0.000000
vt 1.250000 -2.928312 0.000000
vt 1.250000 -12.928312 0.000000
vt 0.647048 -3.178063 0.000000
vt -0.000000 -3.263249 0.000000
vt 29.879294 9.966921 0.000000
vt 29.629542 10.569873 0.000000
vt 29.232246 11.087640 0.000000
vt 28.714479 11.484936 0.000000
vt 26.817431 11.734688 0.000000
vt 28.111527 11.734688 0.000000
vt 27.464479 11.819873 0.000000
vt -1.250000 -12.928312 0.000000
vt -0.647048 -3.178063 0.000000
vt -1.250000 -2.928312 0.000000
vt -26.214479 11.484936 0.000000
vt -29.964479 5.093376 0.000000
vt -28.714479 2.928312 0.000000
vt -26.817431 11.734688 0.000000
vt -28.111527 11.734688 0.000000
vt -28.714479 11.484936 0.000000
vt -29.232246 11.087640 0.000000
vt -27.464479 11.819873 0.000000
vt -29.629542 10.569873 0.000000
vt -29.879294 9.966921 0.000000
vt -29.964479 9.319873 0.000000
vt -29.879294 4.446328 0.000000
vt -29.629542 3.843376 0.000000
vt -29.232246 3.325609 0.000000
vt 0.647048 -13.178063 0.000000
vt -0.647048 -13.178063 0.000000
vt 0.000000 -13.263249 0.000000
vn -0.050000 -0.086603 0.000000
vn -0.050000 -0.086603 0.000000
vn -0.070711 -0.070711 0.000000
vn -0.070711 -0.070711 0.000000
vn -0.086603 -0.050000 0.000000
vn -0.086603 -0.050000 0.000000
vn -0.096593 -0.025882 0.000000
vn -0.096593 -0.025882 0.000000
vn -0.100000 0.000000 0.000000
vn -0.100000 0.000000 0.000000
vn 0.000000 0.000000 0.100000
vn 0.000000 0.000000 0.100000
vn 0.000000 0.000000 0.100000
vn 0.000000 0.000000 0.100000
vn 0.000000 0.000000 0.100000
vn 0.000000 0.000000 0.100000
vn 0.000000 0.000000 0.100000
vn 0.000000 0.000000 0.100000
vn 0.000000 0.000000 0.100000
vn 0.000000 0.000000 0.100000
vn 0.000000 0.000000 0.100000
vn 0.000000 0.000000 0.100000
vn 0.000000 0.000000 0.100000
vn 0.000000 0.000000 0.100000
vn 0.000000 0.000000 0.100000
vn 0.000000 0.000000 0.100000
vn 0.000000 0.000000 0.100000
vn 0.000000 0.000000 0.100000
vn 0.000000 0.000000 0.100000
vn 0.000000 0.000000 0.100000
vn 0.000000 0.000000 0.100000
vn 0.000000 0.000000 0.100000
vn 0.000000 0.000000 0.100000
vn 0.000000 0.000000 0.100000
vn 0.000000 0.000000 0.100000
vn 0.000000 0.000000 0.100000
vn 0.000000 0.000000 0.100000
vn 0.000000 0.000000 0.100000
vn 0.000000 0.000000 0.100000
vn 0.000000 0.000000 0.100000
vn 0.000000 0.000000 0.100000
vn 0.000000 0.000000 0.100000
vn 0.000000 0.000000 0.100000
vn 0.000000 0.000000 0.100000
vn 0.000000 0.000000 0.100000
vn 0.000000 0.000000 0.100000
vn 0.000000 0.000000 0.100000
vn 0.000000 0.000000 0.100000
vn -0.050000 -0.086603 0.000000
vn -0.050000 -0.086603 0.000000
vn 0.050000 -0.086603 0.000000
vn 0.050000 -0.086603 0.000000
vn 0.025882 -0.096593 0.000000
vn 0.025882 -0.096593 0.000000
vn 0.000000 -0.100000 0.000000
vn 0.000000 -0.100000 0.000000
vn -0.025882 -0.096593 0.000000
vn -0.025882 -0.096593 0.000000
vn -0.050000 0.086603 0.000000
vn -0.050000 0.086603 0.000000
vn -0.025882 0.096593 0.000000
vn -0.025882 0.096593 0.000000
vn 0.000000 0.100000 0.000000
vn 0.000000 0.100000 0.000000
vn 0.025882 0.096593 0.000000
vn 0.025882 0.096593 0.000000
vn 0.050000 0.086603 0.000000
vn 0.050000 0.086603 0.000000
vn 0.050000 0.086603 0.000000
vn 0.050000 0.086603 0.000000
vn 0.100000 -0.000000 0.000000
vn 0.100000 -0.000000 0.000000
vn 0.096593 -0.025882 0.000000
vn 0.096593 -0.025882 0.000000
vn 0.086603 -0.050000 0.000000
vn 0.086603 -0.050000 0.000000
vn 0.070711 -0.070711 0.000000
vn 0.070711 -0.070711 0.000000
vn 0.050000 -0.086603 0.000000
vn 0.050000 -0.086603 0.000000
vn 0.100000 0.000000 0.000000
vn 0.100000 0.000000 0.000000
vn -0.050000 0.086603 -0.000000
vn -0.050000 0.086603 -0.000000
vn -0.025882 0.096593 -0.000000
vn -0.025882 0.096593 -0.000000
vn 0.000000 0.100000 0.000000
vn 0.000000 0.100000 0.000000
vn 0.025882 0.096593 0.000000
vn 0.025882 0.096593 0.000000
vn 0.050000 0.086603 0.000000
vn 0.050000 0.086603 0.000000
vn 0.070711 0.070711 0.000000
vn 0.070711 0.070711 0.000000
vn 0.086603 0.050000 0.000000
vn 0.086603 0.050000 0.000000
vn 0.096593 0.025882 0.000000
vn 0.096593 0.025882 0.000000
vn -0.100000 -0.000000 0.000000
vn -0.100000 -0.000000 0.000000
vn -0.096593 0.025882 -0.000000
vn -0.096593 0.025882 -0.000000
vn -0.086603 0.050000 -0.000000
vn -0.086603 0.050000 -0.000000
vn -0.070711 0.070711 -0.000000
vn -0.070711 0.070711 -0.000000
vn -0.050000 0.086603 -0.000000
vn -0.050000 0.086603 -0.000000
vn -0.025882 0.096593 -0.000000
vn -0.025882 0.096593 -0.000000
vn -0.000000 0.100000 -0.000000
vn -0.000000 0.100000 -0.000000
vn 0.025882 0.096593 0.000000
vn 0.025882 0.096593 0.000000
vn 0.000000 0.000000 -0.100000
vn 0.000000 0.000000 -0.100000
vn 0.000000 0.000000 -0.100000
vn 0.000000 0.000000 -0.100000
vn 0.000000 0.000000 -0.100000
vn 0.000000 0.000000 -0.100000
vn 0.000000 0.000000 -0.100000
vn 0.000000 0.000000 -0.100000
vn 0.000000 0.000000 -0.100000
vn 0.000000 0.000000 -0.100000
vn 0.000000 0.000000 -0.100000
vn 0.000000 0.000000 -0.100000
vn 0.000000 0.000000 -0.100000
vn 0.000000 0.000000 -0.100000
vn 0.000000 0.000000 -0.100000
vn 0.000000 0.000000 -0.100000
vn 0.000000 0.000000 -0.100000
vn 0.000000 0.000000 -0.100000
vn 0.000000 0.000000 -0.100000
vn 0.000000 0.000000 -0.100000
vn 0.000000 0.000000 -0.100000
vn 0.000000 0.000000 -0.100000
vn 0.000000 0.000000 -0.100000
vn 0.000000 0.000000 -0.100000
vn 0.000000 0.000000 -0.100000
vn 0.000000 0.000000 -0.100000
vn 0.000000 0.000000 -0.100000
vn 0.000000 0.000000 -0.100000
vn 0.000000 0.000000 -0.100000
vn 0.000000 0.000000 -0.100000
vn 0.000000 0.000000 -0.100000
vn 0.000000 0.000000 -0.100000
vn 0.000000 0.000000 -0.100000
vn 0.000000 0.000000 -0.100000
vn 0.000000 0.000000 -0.100000
vn 0.000000 0.000000 -0.100000
vn 0.000000 0.000000 -0.100000
vn 0.000000 0.000000 -0.100000
usemtl Steel_-_Satin
f 10/1/1 1/2/2 9/3/3
f 9/3/3 1/2/2 2/4/4
f 9/3/3 2/4/4 8/5/5
f 8/5/5 2/4/4 3/6/6
f 8/5/5 3/6/6 7/7/7
f 7/7/7 3/6/6 4/8/8
f 7/7/7 4/8/8 6/9/9
f 6/9/9 4/8/8 5/10/10
f 4/11/11 1/12/12 5/13/13
f 5/13/13 1/12/12 34/14/14
f 5/13/13 34/14/14 35/15/15
f 4/11/11 3/16/16 1/12/12
f 1/12/12 3/16/16 2/17/17
f 1/12/12 11/18/18 34/14/14
f 34/14/14 11/18/18 33/19/19
f 33/19/19 11/18/18 32/20/20
f 32/20/20 11/18/18 15/21/21
f 32/20/20 15/21/21 31/22/22
f 31/22/22 15/21/21 30/23/23
f 30/23/23 15/21/21 16/24/24
f 30/23/23 16/24/24 20/25/25
f 20/25/25 16/24/24 19/26/26
f 19/26/26 16/24/24 18/27/27
f 18/27/27 16/24/24 17/28/28
f 15/21/21 11/18/18 14/29/29
f 14/29/29 11/18/18 12/30/30
f 14/29/29 12/30/30 13/31/31
f 30/23/23 20/25/25 29/32/32
f 29/32/32 20/25/25 21/33/33
f 29/32/32 21/33/33 22/34/34
f 22/34/34 23/35/35 29/32/32
f 29/32/32 23/35/35 24/36/36
f 29/32/32 24/36/36 25/37/37
f 29/32/32 25/37/37 28/38/38
f 28/38/38 25/37/37 26/39/39
f 28/38/38 26/39/39 27/40/40
f 36/41/41 38/42/42 35/15/15
f 35/15/15 38/42/42 39/43/43
f 35/15/15 39/43/43 40/44/44
f 36/41/41 37/45/45 38/42/42
f 40/44/44 41/46/46 35/15/15
f 35/15/15 41/46/46 42/47/47
f 35/15/15 42/47/47 43/48/48
f 43/48/48 5/13/13 35/15/15
f 10/49/1 44/50/49 1/51/2
f 1/51/2 44/50/49 11/52/50
f 48/53/51 15/54/52 47/55/53
f 47/55/53 15/54/52 14/56/54
f 47/55/53 14/56/54 46/57/55
f 46/57/55 14/56/54 13/58/56
f 46/57/55 13/58/56 45/59/57
f 45/59/57 13/58/56 12/60/58
f 45/59/57 12/60/58 44/61/49
f 44/61/49 12/60/58 11/62/50
f 30/63/59 49/64/60 31/65/61
f 31/65/61 49/64/60 50/66/62
f 31/65/61 50/66/62 32/67/63
f 32/67/63 50/66/62 51/68/64
f 32/67/63 51/68/64 33/69/65
f 33/69/65 51/68/64 52/70/66
f 33/69/65 52/70/66 34/71/67
f 34/71/67 52/70/66 53/72/68
f 53/73/68 54/74/69 34/75/67
f 34/75/67 54/74/69 35/76/70
f 59/77/71 20/78/72 58/79/73
f 58/79/73 20/78/72 19/80/74
f 58/79/73 19/80/74 57/81/75
f 57/81/75 19/80/74 18/82/76
f 57/81/75 18/82/76 56/83/77
f 56/83/77 18/82/76 17/84/78
f 56/83/77 17/84/78 55/85/79
f 55/85/79 17/84/78 16/86/80
f 59/87/71 60/88/81 20/89/72
f 20/89/72 60/88/81 21/90/82
f 68/91/83 29/92/84 67/93/85
f 67/93/85 29/92/84 28/94/86
f 67/93/85 28/94/86 66/95/87
f 66/95/87 28/94/86 27/96/88
f 66/95/87 27/96/88 65/97/89
f 65/97/89 27/96/88 26/98/90
f 65/97/89 26/98/90 64/99/91
f 64/99/91 26/98/90 25/100/92
f 64/99/91 25/100/92 63/101/93
f 63/101/93 25/100/92 24/102/94
f 63/101/93 24/102/94 62/103/95
f 62/103/95 24/102/94 23/104/96
f 62/103/95 23/104/96 61/105/97
f 61/105/97 23/104/96 22/106/98
f 61/105/97 22/106/98 60/107/81
f 60/107/81 22/106/98 21/108/82
f 76/109/99 43/110/100 75/111/101
f 75/111/101 43/110/100 42/112/102
f 75/111/101 42/112/102 74/113/103
f 74/113/103 42/112/102 41/114/104
f 74/113/103 41/114/104 73/115/105
f 73/115/105 41/114/104 40/116/106
f 73/115/105 40/116/106 72/117/107
f 72/117/107 40/116/106 39/118/108
f 72/117/107 39/118/108 71/119/109
f 71/119/109 39/118/108 38/120/110
f 71/119/109 38/120/110 70/121/111
f 70/121/111 38/120/110 37/122/112
f 70/121/111 37/122/112 69/123/113
f 69/123/113 37/122/112 36/124/114
f 69/123/113 36/124/114 54/125/69
f 54/125/69 36/124/114 35/126/70
f 5/127/10 43/128/100 6/129/9
f 6/129/9 43/128/100 76/130/99
f 30/131/59 29/132/84 49/133/60
f 49/133/60 29/132/84 68/134/83
f 48/135/51 55/136/79 15/137/52
f 15/137/52 55/136/79 16/138/80
f 9/139/115 8/140/116 10/141/117
f 10/141/117 8/140/116 7/142/118
f 10/141/117 7/142/118 6/143/119
f 76/144/120 54/145/121 6/143/119
f 6/143/119 54/145/121 53/146/122
f 6/143/119 53/146/122 10/141/117
f 10/141/117 53/146/122 44/147/123
f 44/147/123 53/146/122 52/148/124
f 44/147/123 52/148/124 51/149/125
f 76/144/120 75/150/126 54/145/121
f 54/145/121 75/150/126 74/151/127
f 54/145/121 74/151/127 73/152/128
f 73/152/128 72/153/129 54/145/121
f 54/145/121 72/153/129 69/154/130
f 69/154/130 72/153/129 71/155/131
f 69/154/130 71/155/131 70/156/132
f 44/147/123 51/149/125 48/157/133
f 48/157/133 51/149/125 50/158/134
f 48/157/133 50/158/134 49/159/135
f 68/160/136 59/161/137 49/159/135
f 49/159/135 59/161/137 55/162/138
f 49/159/135 55/162/138 48/157/133
f 67/163/139 65/164/140 68/160/136
f 68/160/136 65/164/140 64/165/141
f 68/160/136 64/165/141 63/166/142
f 67/163/139 66/167/143 65/164/140
f 63/166/142 62/168/144 68/160/136
f 68/160/136 62/168/144 61/169/145
f 68/160/136 61/169/145 60/170/146
f 60/170/146 59/161/137 68/160/136
f 59/161/137 58/171/147 55/162/138
f 55/162/138 58/171/147 57/172/148
f 55/162/138 57/172/148 56/173/149
f 44/147/123 48/157/133 45/174/150
f 45/174/150 48/157/133 47/175/151
f 45/174/150 47/175/151 46/176/152

# 76 vertices
# 176 texture params
# 152 normals
# 148 facets

# 1 groups
