# WaveFront *.obj file (generated by Autodesk ATF)

mtllib 116a02c5-4baa-43f8-a1a9-cbd8174f98cc.mtl

g Body1

v 1050.000000 25.000000 100.000000
v 1047.444437 5.588572 100.000000
v 1039.951905 -12.500000 100.000000
v 1028.033009 -28.033009 100.000000
v 1012.500000 -39.951905 100.000000
v 994.411428 -47.444437 100.000000
v 975.000000 -50.000000 100.000000
v 975.000000 -50.000000 0.000000
v 994.411428 -47.444437 0.000000
v 1012.500000 -39.951905 0.000000
v 1028.033009 -28.033009 0.000000
v 1039.951905 -12.500000 0.000000
v 1047.444437 5.588572 0.000000
v 1050.000000 25.000000 0.000000
v 1050.000000 475.000000 0.000000
v 1050.000000 475.000000 100.000000
v 0.000000 500.000000 0.000000
v 0.000000 0.000000 0.000000
v 1000.000000 0.000000 0.000000
v 1000.000000 500.000000 0.000000
v 25.000000 -50.000000 0.000000
v 5.588572 -47.444437 0.000000
v -12.500000 -39.951905 0.000000
v -28.033009 -28.033009 0.000000
v -39.951905 -12.500000 0.000000
v -47.444437 5.588572 0.000000
v -50.000000 25.000000 0.000000
v -50.000000 475.000000 0.000000
v -47.444437 494.411428 0.000000
v -39.951905 512.500000 0.000000
v -28.033009 528.033009 0.000000
v -12.500000 539.951905 0.000000
v 5.588572 547.444437 0.000000
v 25.000000 550.000000 0.000000
v 975.000000 550.000000 0.000000
v 994.411428 547.444437 0.000000
v 1012.500000 539.951905 0.000000
v 1028.033009 528.033009 0.000000
v 1039.951905 512.500000 0.000000
v 1047.444437 494.411428 0.000000
v 25.000000 -50.000000 100.000000
v 5.588572 -47.444437 100.000000
v -12.500000 -39.951905 100.000000
v -28.033009 -28.033009 100.000000
v -39.951905 -12.500000 100.000000
v -47.444437 5.588572 100.000000
v -50.000000 25.000000 100.000000
v -50.000000 475.000000 100.000000
v -47.444437 494.411428 100.000000
v -39.951905 512.500000 100.000000
v -28.033009 528.033009 100.000000
v -12.500000 539.951905 100.000000
v 5.588572 547.444437 100.000000
v 25.000000 550.000000 100.000000
v 975.000000 550.000000 100.000000
v 994.411428 547.444437 100.000000
v 1012.500000 539.951905 100.000000
v 1028.033009 528.033009 100.000000
v 1039.951905 512.500000 100.000000
v 1047.444437 494.411428 100.000000
v 0.000000 0.000000 100.000000
v 1000.000000 0.000000 100.000000
v 1000.000000 500.000000 100.000000
v 0.000000 500.000000 100.000000
vt -0.000000 5.890486 0.000000
vt -10.000000 5.890486 0.000000
vt -0.000000 3.926991 0.000000
vt -10.000000 3.926991 0.000000
vt -0.000000 1.963495 0.000000
vt -10.000000 1.963495 0.000000
vt -0.000000 0.000000 0.000000
vt -10.000000 0.000000 0.000000
vt -0.000000 -1.963495 0.000000
vt -10.000000 -1.963495 0.000000
vt -0.000000 -3.926991 0.000000
vt -10.000000 -3.926991 0.000000
vt -0.000000 -5.890486 0.000000
vt -10.000000 -5.890486 0.000000
vt 7.500000 0.000000 0.000000
vt 52.500000 0.000000 0.000000
vt 7.500000 10.000000 0.000000
vt 52.500000 10.000000 0.000000
vt 50.000000 -25.000000 0.000000
vt 55.000000 22.500000 0.000000
vt 50.000000 25.000000 0.000000
vt 54.744444 24.441143 0.000000
vt 53.995191 26.250000 0.000000
vt -50.000000 -25.000000 0.000000
vt 47.500000 -30.000000 0.000000
vt 49.441143 -29.744444 0.000000
vt 51.250000 -28.995191 0.000000
vt -50.000000 25.000000 0.000000
vt -55.000000 22.500000 0.000000
vt -55.000000 -22.500000 0.000000
vt -54.744444 -24.441143 0.000000
vt -47.500000 30.000000 0.000000
vt -49.441143 29.744444 0.000000
vt -51.250000 28.995191 0.000000
vt -53.995191 -26.250000 0.000000
vt -52.803301 -27.803301 0.000000
vt -51.250000 -28.995191 0.000000
vt -49.441143 -29.744444 0.000000
vt -47.500000 -30.000000 0.000000
vt 52.803301 -27.803301 0.000000
vt 53.995191 -26.250000 0.000000
vt 54.744444 -24.441143 0.000000
vt 55.000000 -22.500000 0.000000
vt 52.803301 27.803301 0.000000
vt 51.250000 28.995191 0.000000
vt 49.441143 29.744444 0.000000
vt 47.500000 30.000000 0.000000
vt -52.803301 27.803301 0.000000
vt -53.995191 26.250000 0.000000
vt -54.744444 24.441143 0.000000
vt -0.000000 5.890486 0.000000
vt -10.000000 5.890486 0.000000
vt -0.000000 3.926991 0.000000
vt -10.000000 3.926991 0.000000
vt -0.000000 1.963495 0.000000
vt -10.000000 1.963495 0.000000
vt -0.000000 0.000000 0.000000
vt -10.000000 0.000000 0.000000
vt -0.000000 -1.963495 0.000000
vt -10.000000 -1.963495 0.000000
vt -0.000000 -3.926991 0.000000
vt -10.000000 -3.926991 0.000000
vt -0.000000 -5.890486 0.000000
vt -10.000000 -5.890486 0.000000
vt 52.500000 10.000000 0.000000
vt 7.500000 10.000000 0.000000
vt 52.500000 0.000000 0.000000
vt 7.500000 0.000000 0.000000
vt -0.000000 5.890486 0.000000
vt -10.000000 5.890486 0.000000
vt -0.000000 3.926991 0.000000
vt -10.000000 3.926991 0.000000
vt -0.000000 1.963495 0.000000
vt -10.000000 1.963495 0.000000
vt -0.000000 -0.000000 0.000000
vt -10.000000 -0.000000 0.000000
vt -0.000000 -1.963495 0.000000
vt -10.000000 -1.963495 0.000000
vt -0.000000 -3.926991 0.000000
vt -10.000000 -3.926991 0.000000
vt -0.000000 -5.890486 0.000000
vt -10.000000 -5.890486 0.000000
vt -0.000000 5.890486 0.000000
vt -10.000000 5.890486 0.000000
vt -0.000000 3.926991 0.000000
vt -10.000000 3.926991 0.000000
vt -0.000000 1.963495 0.000000
vt -10.000000 1.963495 0.000000
vt -0.000000 0.000000 0.000000
vt -10.000000 0.000000 0.000000
vt -0.000000 -1.963495 0.000000
vt -10.000000 -1.963495 0.000000
vt -0.000000 -3.926991 0.000000
vt -10.000000 -3.926991 0.000000
vt -0.000000 -5.890486 0.000000
vt -10.000000 -5.890486 0.000000
vt -0.000000 0.000000 0.000000
vt 100.000000 0.000000 0.000000
vt -0.000000 10.000000 0.000000
vt 100.000000 10.000000 0.000000
vt -0.000000 0.000000 0.000000
vt 50.000000 0.000000 0.000000
vt -0.000000 10.000000 0.000000
vt 50.000000 10.000000 0.000000
vt 0.000000 0.000000 0.000000
vt 100.000000 0.000000 0.000000
vt 0.000000 10.000000 0.000000
vt 100.000000 10.000000 0.000000
vt 0.000000 0.000000 0.000000
vt 50.000000 0.000000 0.000000
vt 0.000000 10.000000 0.000000
vt 50.000000 10.000000 0.000000
vt 102.500000 10.000000 0.000000
vt 7.500000 10.000000 0.000000
vt 102.500000 0.000000 0.000000
vt 7.500000 0.000000 0.000000
vt 102.500000 10.000000 0.000000
vt 7.500000 10.000000 0.000000
vt 102.500000 0.000000 0.000000
vt 7.500000 0.000000 0.000000
vt 49.441143 -29.744444 0.000000
vt 50.000000 -25.000000 0.000000
vt 47.500000 -30.000000 0.000000
vt -50.000000 -25.000000 0.000000
vt -47.500000 -30.000000 0.000000
vt -49.441143 -29.744444 0.000000
vt -51.250000 -28.995191 0.000000
vt -52.803301 -27.803301 0.000000
vt -53.995191 -26.250000 0.000000
vt -54.744444 -24.441143 0.000000
vt -55.000000 -22.500000 0.000000
vt -55.000000 22.500000 0.000000
vt -50.000000 25.000000 0.000000
vt -54.744444 24.441143 0.000000
vt -53.995191 26.250000 0.000000
vt -52.803301 27.803301 0.000000
vt -51.250000 28.995191 0.000000
vt -49.441143 29.744444 0.000000
vt -47.500000 30.000000 0.000000
vt 50.000000 25.000000 0.000000
vt 47.500000 30.000000 0.000000
vt 49.441143 29.744444 0.000000
vt 51.250000 28.995191 0.000000
vt 52.803301 27.803301 0.000000
vt 53.995191 26.250000 0.000000
vt 54.744444 24.441143 0.000000
vt 55.000000 22.500000 0.000000
vt 55.000000 -22.500000 0.000000
vt 54.744444 -24.441143 0.000000
vt 53.995191 -26.250000 0.000000
vt 52.803301 -27.803301 0.000000
vt 51.250000 -28.995191 0.000000
vn 0.100000 0.000000 0.000000
vn 0.100000 0.000000 0.000000
vn 0.096593 -0.025882 0.000000
vn 0.096593 -0.025882 0.000000
vn 0.086603 -0.050000 0.000000
vn 0.086603 -0.050000 0.000000
vn 0.070711 -0.070711 0.000000
vn 0.070711 -0.070711 0.000000
vn 0.050000 -0.086603 0.000000
vn 0.050000 -0.086603 0.000000
vn 0.025882 -0.096593 0.000000
vn 0.025882 -0.096593 0.000000
vn 0.000000 -0.100000 0.000000
vn 0.000000 -0.100000 0.000000
vn 0.100000 0.000000 0.000000
vn 0.100000 0.000000 0.000000
vn 0.000000 0.000000 -0.100000
vn 0.000000 0.000000 -0.100000
vn 0.000000 0.000000 -0.100000
vn 0.000000 0.000000 -0.100000
vn 0.000000 0.000000 -0.100000
vn 0.000000 0.000000 -0.100000
vn 0.000000 0.000000 -0.100000
vn 0.000000 0.000000 -0.100000
vn 0.000000 0.000000 -0.100000
vn 0.000000 0.000000 -0.100000
vn 0.000000 0.000000 -0.100000
vn 0.000000 0.000000 -0.100000
vn 0.000000 0.000000 -0.100000
vn 0.000000 0.000000 -0.100000
vn 0.000000 0.000000 -0.100000
vn 0.000000 0.000000 -0.100000
vn 0.000000 0.000000 -0.100000
vn 0.000000 0.000000 -0.100000
vn 0.000000 0.000000 -0.100000
vn 0.000000 0.000000 -0.100000
vn 0.000000 0.000000 -0.100000
vn 0.000000 0.000000 -0.100000
vn 0.000000 0.000000 -0.100000
vn 0.000000 0.000000 -0.100000
vn 0.000000 0.000000 -0.100000
vn 0.000000 0.000000 -0.100000
vn 0.000000 0.000000 -0.100000
vn 0.000000 0.000000 -0.100000
vn 0.000000 0.000000 -0.100000
vn 0.000000 0.000000 -0.100000
vn 0.000000 0.000000 -0.100000
vn 0.000000 0.000000 -0.100000
vn 0.000000 -0.100000 0.000000
vn 0.000000 -0.100000 0.000000
vn -0.025882 -0.096593 0.000000
vn -0.025882 -0.096593 0.000000
vn -0.050000 -0.086603 0.000000
vn -0.050000 -0.086603 0.000000
vn -0.070711 -0.070711 0.000000
vn -0.070711 -0.070711 0.000000
vn -0.086603 -0.050000 0.000000
vn -0.086603 -0.050000 0.000000
vn -0.096593 -0.025882 0.000000
vn -0.096593 -0.025882 0.000000
vn -0.100000 0.000000 0.000000
vn -0.100000 0.000000 0.000000
vn -0.100000 0.000000 0.000000
vn -0.100000 0.000000 0.000000
vn -0.096593 0.025882 -0.000000
vn -0.096593 0.025882 -0.000000
vn -0.086603 0.050000 -0.000000
vn -0.086603 0.050000 -0.000000
vn -0.070711 0.070711 -0.000000
vn -0.070711 0.070711 -0.000000
vn -0.050000 0.086603 -0.000000
vn -0.050000 0.086603 -0.000000
vn -0.025882 0.096593 -0.000000
vn -0.025882 0.096593 -0.000000
vn -0.000000 0.100000 -0.000000
vn -0.000000 0.100000 -0.000000
vn 0.000000 0.100000 0.000000
vn 0.000000 0.100000 0.000000
vn 0.025882 0.096593 0.000000
vn 0.025882 0.096593 0.000000
vn 0.050000 0.086603 0.000000
vn 0.050000 0.086603 0.000000
vn 0.070711 0.070711 0.000000
vn 0.070711 0.070711 0.000000
vn 0.086603 0.050000 0.000000
vn 0.086603 0.050000 0.000000
vn 0.096593 0.025882 0.000000
vn 0.096593 0.025882 0.000000
vn 0.000000 0.100000 0.000000
vn 0.000000 0.100000 0.000000
vn 0.000000 0.100000 0.000000
vn 0.000000 0.100000 0.000000
vn -0.100000 0.000000 0.000000
vn -0.100000 0.000000 0.000000
vn -0.100000 0.000000 0.000000
vn -0.100000 0.000000 0.000000
vn 0.000000 -0.100000 0.000000
vn 0.000000 -0.100000 0.000000
vn 0.000000 -0.100000 0.000000
vn 0.000000 -0.100000 0.000000
vn 0.100000 0.000000 0.000000
vn 0.100000 0.000000 0.000000
vn 0.100000 0.000000 0.000000
vn 0.100000 0.000000 0.000000
vn 0.000000 0.000000 0.100000
vn 0.000000 0.000000 0.100000
vn 0.000000 0.000000 0.100000
vn 0.000000 0.000000 0.100000
vn 0.000000 0.000000 0.100000
vn 0.000000 0.000000 0.100000
vn 0.000000 0.000000 0.100000
vn 0.000000 0.000000 0.100000
vn 0.000000 0.000000 0.100000
vn 0.000000 0.000000 0.100000
vn 0.000000 0.000000 0.100000
vn 0.000000 0.000000 0.100000
vn 0.000000 0.000000 0.100000
vn 0.000000 0.000000 0.100000
vn 0.000000 0.000000 0.100000
vn 0.000000 0.000000 0.100000
vn 0.000000 0.000000 0.100000
vn 0.000000 0.000000 0.100000
vn 0.000000 0.000000 0.100000
vn 0.000000 0.000000 0.100000
vn 0.000000 0.000000 0.100000
vn 0.000000 0.000000 0.100000
vn 0.000000 0.000000 0.100000
vn 0.000000 0.000000 0.100000
vn 0.000000 0.000000 0.100000
vn 0.000000 0.000000 0.100000
vn 0.000000 0.000000 0.100000
vn 0.000000 0.000000 0.100000
vn 0.000000 0.000000 0.100000
vn 0.000000 0.000000 0.100000
vn 0.000000 0.000000 0.100000
vn 0.000000 0.000000 0.100000
usemtl Steel_-_Satin
f 14/1/1 1/2/2 13/3/3
f 13/3/3 1/2/2 2/4/4
f 13/3/3 2/4/4 12/5/5
f 12/5/5 2/4/4 3/6/6
f 12/5/5 3/6/6 11/7/7
f 11/7/7 3/6/6 4/8/8
f 11/7/7 4/8/8 10/9/9
f 10/9/9 4/8/8 5/10/10
f 10/9/9 5/10/10 9/11/11
f 9/11/11 5/10/10 6/12/12
f 9/11/11 6/12/12 8/13/13
f 8/13/13 6/12/12 7/14/14
f 14/15/1 15/16/15 1/17/2
f 1/17/2 15/16/15 16/18/16
f 18/19/17 28/20/18 17/21/19
f 17/21/19 28/20/18 29/22/20
f 17/21/19 29/22/20 30/23/21
f 19/24/22 21/25/23 18/19/17
f 18/19/17 21/25/23 22/26/24
f 18/19/17 22/26/24 23/27/25
f 20/28/26 15/29/27 19/24/22
f 19/24/22 15/29/27 14/30/28
f 19/24/22 14/30/28 13/31/29
f 17/21/19 35/32/30 20/28/26
f 20/28/26 35/32/30 36/33/31
f 20/28/26 36/33/31 37/34/32
f 13/31/29 12/35/33 19/24/22
f 19/24/22 12/35/33 11/36/34
f 19/24/22 11/36/34 10/37/35
f 10/37/35 9/38/36 19/24/22
f 19/24/22 9/38/36 8/39/37
f 19/24/22 8/39/37 21/25/23
f 23/27/25 24/40/38 18/19/17
f 18/19/17 24/40/38 25/41/39
f 18/19/17 25/41/39 26/42/40
f 26/42/40 27/43/41 18/19/17
f 18/19/17 27/43/41 28/20/18
f 30/23/21 31/44/42 17/21/19
f 17/21/19 31/44/42 32/45/43
f 17/21/19 32/45/43 33/46/44
f 33/46/44 34/47/45 17/21/19
f 17/21/19 34/47/45 35/32/30
f 37/34/32 38/48/46 20/28/26
f 20/28/26 38/48/46 39/49/47
f 20/28/26 39/49/47 40/50/48
f 40/50/48 15/29/27 20/28/26
f 21/51/49 41/52/50 22/53/51
f 22/53/51 41/52/50 42/54/52
f 22/53/51 42/54/52 23/55/53
f 23/55/53 42/54/52 43/56/54
f 23/55/53 43/56/54 24/57/55
f 24/57/55 43/56/54 44/58/56
f 24/57/55 44/58/56 25/59/57
f 25/59/57 44/58/56 45/60/58
f 25/59/57 45/60/58 26/61/59
f 26/61/59 45/60/58 46/62/60
f 26/61/59 46/62/60 27/63/61
f 27/63/61 46/62/60 47/64/62
f 47/65/62 48/66/63 27/67/61
f 27/67/61 48/66/63 28/68/64
f 28/69/64 48/70/63 29/71/65
f 29/71/65 48/70/63 49/72/66
f 29/71/65 49/72/66 30/73/67
f 30/73/67 49/72/66 50/74/68
f 30/73/67 50/74/68 31/75/69
f 31/75/69 50/74/68 51/76/70
f 31/75/69 51/76/70 32/77/71
f 32/77/71 51/76/70 52/78/72
f 32/77/71 52/78/72 33/79/73
f 33/79/73 52/78/72 53/80/74
f 33/79/73 53/80/74 34/81/75
f 34/81/75 53/80/74 54/82/76
f 35/83/77 55/84/78 36/85/79
f 36/85/79 55/84/78 56/86/80
f 36/85/79 56/86/80 37/87/81
f 37/87/81 56/86/80 57/88/82
f 37/87/81 57/88/82 38/89/83
f 38/89/83 57/88/82 58/90/84
f 38/89/83 58/90/84 39/91/85
f 39/91/85 58/90/84 59/92/86
f 39/91/85 59/92/86 40/93/87
f 40/93/87 59/92/86 60/94/88
f 40/93/87 60/94/88 15/95/15
f 15/95/15 60/94/88 16/96/16
f 19/97/89 18/98/90 62/99/91
f 62/99/91 18/98/90 61/100/92
f 20/101/93 19/102/94 63/103/95
f 63/103/95 19/102/94 62/104/96
f 17/105/97 20/106/98 64/107/99
f 64/107/99 20/106/98 63/108/100
f 18/109/101 17/110/102 61/111/103
f 61/111/103 17/110/102 64/112/104
f 54/113/76 55/114/78 34/115/75
f 34/115/75 55/114/78 35/116/77
f 7/117/14 41/118/50 8/119/13
f 8/119/13 41/118/50 21/120/49
f 6/121/105 62/122/106 7/123/107
f 7/123/107 62/122/106 61/124/108
f 7/123/107 61/124/108 41/125/109
f 41/125/109 61/124/108 42/126/110
f 42/126/110 61/124/108 43/127/111
f 43/127/111 61/124/108 44/128/112
f 44/128/112 61/124/108 45/129/113
f 45/129/113 61/124/108 46/130/114
f 46/130/114 61/124/108 47/131/115
f 47/131/115 61/124/108 48/132/116
f 48/132/116 61/124/108 64/133/117
f 48/132/116 64/133/117 49/134/118
f 49/134/118 64/133/117 50/135/119
f 50/135/119 64/133/117 51/136/120
f 51/136/120 64/133/117 52/137/121
f 52/137/121 64/133/117 53/138/122
f 53/138/122 64/133/117 54/139/123
f 54/139/123 64/133/117 63/140/124
f 54/139/123 63/140/124 55/141/125
f 55/141/125 63/140/124 56/142/126
f 56/142/126 63/140/124 57/143/127
f 57/143/127 63/140/124 58/144/128
f 58/144/128 63/140/124 59/145/129
f 59/145/129 63/140/124 60/146/130
f 60/146/130 63/140/124 16/147/131
f 16/147/131 63/140/124 62/122/106
f 16/147/131 62/122/106 1/148/132
f 1/148/132 62/122/106 2/149/133
f 2/149/133 62/122/106 3/150/134
f 3/150/134 62/122/106 4/151/135
f 4/151/135 62/122/106 5/152/136
f 5/152/136 62/122/106 6/121/105

# 64 vertices
# 152 texture params
# 136 normals
# 128 facets

# 1 groups
